FFmpeg version SVN-r25716, Copyright (c) 2000-2010 the FFmpeg developers  built on Nov 10 2010 12:23:18 with gcc 4.1.2 20080704 (Red Hat 4.1.2-48)  configuration: --enable-libmp3lame --enable-shared --disable-mmx --arch=x86_64  libavutil     50.33. 0 / 50.33. 0  libavcore      0.12. 1 /  0.12. 1  libavcodec    52.94. 4 / 52.94. 4  libavformat   52.84. 0 / 52.84. 0  libavdevice   52. 2. 2 / 52. 2. 2  libavfilter    1.59. 0 /  1.59. 0  libswscale     0.12. 0 /  0.12. 0Seems stream 0 codec frame rate differs from container frame rate: 1200.00 (1200/1) -> 30.00 (30/1)Input #0, mov,mp4,m4a,3gp,3g2,mj2, from '/RAID10/data/converted_video_files/48252.mov':  Metadata:    major_brand     : qt      minor_version   : 0    compatible_brands: qt    Duration: 00:00:13.10, start: 0.000000, bitrate: 4194 kb/s    Stream #0.0(und): Video: h264, yuv420p, 512x512 [PAR 1:1 DAR 1:1], 4192 kb/s, 30 fps, 30 tbr, 600 tbn, 1200 tbc[buffer @ 0x380d9a0] w:512 h:512 pixfmt:yuv420pOutput #0, flv, to '/RAID10/data/converted_video_files/48252.flv':  Metadata:    encoder         : Lavf52.84.0    Stream #0.0(und): Video: flv, yuv420p, 512x512 [PAR 1:1 DAR 1:1], q=2-31, 600 kb/s, 1k tbn, 24 tbcStream mapping:  Stream #0.0 -> #0.0Press [q] to stop encodingframe=   26 fps=  0 q=31.0 size=    1375kB time=1.08 bitrate=10403.6kbits/s dup=0 drop=6    frame=   52 fps= 47 q=31.0 size=    1749kB time=2.17 bitrate=6612.0kbits/s dup=0 drop=12    frame=   81 fps= 50 q=24.8 size=    2196kB time=3.38 bitrate=5330.7kbits/s dup=0 drop=20    frame=  105 fps= 49 q=24.8 size=    2555kB time=4.38 bitrate=4783.8kbits/s dup=0 drop=26    frame=  123 fps= 47 q=31.0 size=    2815kB time=5.12 bitrate=4500.1kbits/s dup=0 drop=30    frame=  149 fps= 48 q=24.8 size=    3214kB time=6.21 bitrate=4241.1kbits/s dup=0 drop=37    frame=  173 fps= 48 q=24.8 size=    3571kB time=7.21 bitrate=4058.2kbits/s dup=0 drop=43    frame=  201 fps= 49 q=24.8 size=    3978kB time=8.38 bitrate=3891.4kbits/s dup=0 drop=50    frame=  230 fps= 49 q=31.0 size=    4398kB time=9.58 bitrate=3760.0kbits/s dup=0 drop=57    frame=  257 fps= 50 q=24.8 size=    4799kB time=10.71 bitrate=3671.5kbits/s dup=0 drop=64    frame=  285 fps= 50 q=24.8 size=    5208kB time=11.88 bitrate=3593.0kbits/s dup=0 drop=71    frame=  312 fps= 50 q=24.8 size=    5598kB time=13.00 bitrate=3527.8kbits/s dup=0 drop=78    frame=  315 fps= 50 q=31.0 Lsize=    5638kB time=13.12 bitrate=3518.7kbits/s dup=0 drop=78    video:5632kB audio:0kB global headers:0kB muxing overhead 0.091026%